<svg width="430" height="104" viewBox="0 0 430 104" fill="none" xmlns="http://www.w3.org/2000/svg">
<g clip-path="url(#clip0_93_108)">
<path d="M73.2703 1.35522H0.304688V23.3644H73.2703V1.35522Z" fill="white"/>
<path d="M55.478 32.177H0.720252C0.720252 32.177 -12.4007 101.19 73.3623 101.746V76.5627C73.3623 76.5627 37.2497 78.3089 28.7725 57.8622H55.341L55.4809 32.1799L55.478 32.177Z" fill="white"/>
<path d="M155.067 82.5034C146.829 82.5034 139.979 79.9002 134.522 74.6967C129.064 69.4932 126.336 62.6631 126.336 54.2063C126.336 45.7495 129.047 39.3712 134.466 33.987C139.885 28.6028 146.681 25.9092 154.849 25.9092C162.364 25.9092 168.69 28.2413 173.82 32.9026C178.951 37.5639 181.519 44.1229 181.519 52.5797C181.519 54.9642 181.446 56.6638 181.304 57.6753H140.757C141.191 61.2172 142.763 63.9807 145.474 65.9688C148.185 67.957 151.418 68.951 155.178 68.951C161.536 68.951 166.2 66.6743 169.162 62.1209L180.219 70.359C174.654 78.4543 166.27 82.5005 155.067 82.5005V82.5034ZM141.299 47.5919H166.667C166.017 44.4844 164.553 42.1348 162.277 40.546C160 38.9573 157.379 38.1615 154.417 38.1615C151.456 38.1615 148.599 38.9573 146.068 40.546C143.538 42.1377 141.949 44.4873 141.299 47.5919Z" fill="white"/>
<path d="M193.662 81.3111V-0.000488281H208.515V81.3111H193.662Z" fill="white"/>
<path d="M244.616 103.968H228.464L239.847 78.2737L217.08 27.1016H233.344L247.87 62.2288L262.288 27.1016H278.659L244.616 103.968Z" fill="white"/>
<path d="M313.24 81.9612C307.168 81.9612 302.198 80.2821 298.332 76.921C294.464 73.5598 292.531 68.7003 292.531 62.3395V40.1146H281.582V27.1044H292.531V12.0361H307.384V27.1044H322.671V40.1146H307.384V59.4127C307.384 62.7389 308.107 65.1031 309.553 66.514C310.999 67.922 313.348 68.6275 316.599 68.6275C318.91 68.6275 320.936 68.301 322.671 67.6509V80.7689C320.068 81.5648 316.925 81.9612 313.237 81.9612H313.24Z" fill="white"/>
<path d="M334.488 81.3112V27.1044H349.341V35.7769C350.28 33.1037 351.997 30.8824 354.492 29.11C356.984 27.3405 359.751 26.4543 362.785 26.4543C364.663 26.4543 366.324 26.6701 367.773 27.1044V42.1727C365.389 41.3769 363.147 40.9804 361.051 40.9804C357.509 40.9804 354.673 42.2631 352.542 44.8284C350.408 47.3937 349.344 50.9181 349.344 55.3986V81.3083H334.491L334.488 81.3112Z" fill="white"/>
<path d="M398.56 82.5034C391.407 82.5034 385.369 79.7224 380.454 74.1545C375.539 68.5895 373.082 61.9401 373.082 54.2063C373.082 46.4725 375.539 39.826 380.454 34.2581C385.369 28.6931 391.404 25.9092 398.56 25.9092C402.029 25.9092 405.137 26.6321 407.883 28.078C410.629 29.5239 412.725 31.2235 414.171 33.1737V27.1015H429.023V81.3082H414.171V75.236C412.725 77.1862 410.629 78.8857 407.883 80.3317C405.137 81.7776 402.029 82.5005 398.56 82.5005V82.5034ZM391.783 64.8319C394.275 67.5809 397.584 68.951 401.703 68.951C405.822 68.951 409.13 67.578 411.623 64.8319C414.115 62.0859 415.363 58.544 415.363 54.2063C415.363 49.8686 414.115 46.3296 411.623 43.5807C409.13 40.8346 405.822 39.4616 401.703 39.4616C397.584 39.4616 394.278 40.8346 391.783 43.5807C389.29 46.3296 388.042 49.8686 388.042 54.2063C388.042 58.544 389.29 62.0859 391.783 64.8319Z" fill="white"/>
</g>
<defs>
<clipPath id="clip0_93_108">
<rect width="429.025" height="103.968" fill="white"/>
</clipPath>
</defs>
</svg>
